<svg xmlns="http://www.w3.org/2000/svg" xmlns:xlink="http://www.w3.org/1999/xlink" width="100" zoomAndPan="magnify" viewBox="0 0 75 74.999997" height="100" preserveAspectRatio="xMidYMid meet" version="1.0"><defs><g/><clipPath id="4d048e772e"><path d="M 0 30.144531 L 75 30.144531 L 75 46.398438 L 0 46.398438 Z M 0 30.144531 " clip-rule="nonzero"/></clipPath><clipPath id="3aa78d4d11"><path d="M 0.00390625 30.144531 L 74.996094 30.144531 L 74.996094 46.398438 L 0.00390625 46.398438 Z M 0.00390625 30.144531 " clip-rule="nonzero"/></clipPath><clipPath id="328686bdff"><path d="M 2.613281 32.847656 L 36.417969 32.847656 L 36.417969 43.800781 L 2.613281 43.800781 Z M 2.613281 32.847656 " clip-rule="nonzero"/></clipPath></defs><g clip-path="url(#4d048e772e)"><path fill="#ffffff" d="M 0 30.144531 L 74.996094 30.144531 L 74.996094 46.398438 L 0 46.398438 Z M 0 30.144531 " fill-opacity="1" fill-rule="nonzero"/></g><g clip-path="url(#3aa78d4d11)"><path stroke-linecap="butt" transform="matrix(0.75, 0, 0, 0.75, 0.00577104, 30.142921)" fill="none" stroke-linejoin="miter" d="M -0.00248639 0.00214655 L 99.987112 0.00214655 L 99.987112 21.674025 L -0.00248639 21.674025 Z M -0.00248639 0.00214655 " stroke="#013479" stroke-width="2" stroke-opacity="1" stroke-miterlimit="4"/></g><g clip-path="url(#328686bdff)"><path fill="#013479" d="M 2.613281 32.847656 L 36.417969 32.847656 L 36.417969 43.800781 L 2.613281 43.800781 Z M 2.613281 32.847656 " fill-opacity="1" fill-rule="nonzero"/></g><g fill="#ffffff" fill-opacity="1"><g transform="translate(4.628972, 40.530973)"><g><path d="M 2.734375 0.09375 C 2.390625 0.09375 2.070312 0.0351562 1.78125 -0.078125 C 1.5 -0.203125 1.253906 -0.375 1.046875 -0.59375 C 0.835938 -0.8125 0.675781 -1.066406 0.5625 -1.359375 C 0.445312 -1.648438 0.390625 -1.96875 0.390625 -2.3125 C 0.390625 -2.664062 0.445312 -2.988281 0.5625 -3.28125 C 0.675781 -3.570312 0.835938 -3.820312 1.046875 -4.03125 C 1.253906 -4.25 1.5 -4.414062 1.78125 -4.53125 C 2.070312 -4.65625 2.390625 -4.71875 2.734375 -4.71875 C 3.097656 -4.71875 3.429688 -4.648438 3.734375 -4.515625 C 4.046875 -4.378906 4.3125 -4.1875 4.53125 -3.9375 C 4.75 -3.695312 4.910156 -3.40625 5.015625 -3.0625 L 4.390625 -3.0625 C 4.265625 -3.394531 4.054688 -3.65625 3.765625 -3.84375 C 3.472656 -4.039062 3.132812 -4.140625 2.75 -4.140625 C 2.40625 -4.140625 2.097656 -4.0625 1.828125 -3.90625 C 1.566406 -3.75 1.359375 -3.535156 1.203125 -3.265625 C 1.054688 -2.992188 0.984375 -2.675781 0.984375 -2.3125 C 0.984375 -1.957031 1.054688 -1.640625 1.203125 -1.359375 C 1.359375 -1.085938 1.566406 -0.875 1.828125 -0.71875 C 2.097656 -0.570312 2.40625 -0.5 2.75 -0.5 C 3.144531 -0.5 3.492188 -0.597656 3.796875 -0.796875 C 4.097656 -1.003906 4.3125 -1.28125 4.4375 -1.625 L 5.046875 -1.625 C 4.953125 -1.28125 4.789062 -0.976562 4.5625 -0.71875 C 4.34375 -0.46875 4.078125 -0.269531 3.765625 -0.125 C 3.453125 0.0195312 3.109375 0.09375 2.734375 0.09375 Z M 2.734375 0.09375 "/></g></g></g><g fill="#ffffff" fill-opacity="1"><g transform="translate(10.532208, 40.530973)"><g><path d="M 0.109375 0 L 2.015625 -4.640625 L 2.5625 -4.640625 L 4.46875 0 L 3.859375 0 L 3.421875 -1.046875 L 1.15625 -1.046875 L 0.734375 0 Z M 1.390625 -1.59375 L 3.203125 -1.59375 L 2.296875 -3.828125 Z M 1.390625 -1.59375 "/></g></g></g><g fill="#ffffff" fill-opacity="1"><g transform="translate(15.614816, 40.530973)"><g><path d="M 0.671875 0 L 0.671875 -4.640625 L 2.4375 -4.640625 C 2.757812 -4.640625 3.039062 -4.578125 3.28125 -4.453125 C 3.519531 -4.328125 3.707031 -4.15625 3.84375 -3.9375 C 3.976562 -3.71875 4.046875 -3.453125 4.046875 -3.140625 C 4.046875 -2.765625 3.945312 -2.453125 3.75 -2.203125 C 3.550781 -1.960938 3.285156 -1.800781 2.953125 -1.71875 L 4.109375 0 L 3.40625 0 L 2.28125 -1.65625 L 1.265625 -1.65625 L 1.265625 0 Z M 1.265625 -2.21875 L 2.375 -2.21875 C 2.71875 -2.21875 2.976562 -2.296875 3.15625 -2.453125 C 3.34375 -2.617188 3.4375 -2.847656 3.4375 -3.140625 C 3.4375 -3.441406 3.34375 -3.671875 3.15625 -3.828125 C 2.976562 -3.992188 2.71875 -4.078125 2.375 -4.078125 L 1.265625 -4.078125 Z M 1.265625 -2.21875 "/></g></g></g><g fill="#ffffff" fill-opacity="1"><g transform="translate(20.624626, 40.530973)"><g><path d="M 0.671875 0 L 0.671875 -4.640625 L 3.484375 -4.640625 L 3.484375 -4.09375 L 1.265625 -4.09375 L 1.265625 -2.625 L 3.328125 -2.625 L 3.328125 -2.09375 L 1.265625 -2.09375 L 1.265625 -0.546875 L 3.5625 -0.546875 L 3.5625 0 Z M 0.671875 0 "/></g></g></g><g fill="#ffffff" fill-opacity="1"><g transform="translate(25.118233, 40.530973)"><g><path d="M 0.671875 0 L 0.671875 -4.640625 L 3.484375 -4.640625 L 3.484375 -4.09375 L 1.265625 -4.09375 L 1.265625 -2.625 L 3.328125 -2.625 L 3.328125 -2.09375 L 1.265625 -2.09375 L 1.265625 -0.546875 L 3.5625 -0.546875 L 3.5625 0 Z M 0.671875 0 "/></g></g></g><g fill="#ffffff" fill-opacity="1"><g transform="translate(29.61184, 40.530973)"><g><path d="M 0.671875 0 L 0.671875 -4.640625 L 2.4375 -4.640625 C 2.757812 -4.640625 3.039062 -4.578125 3.28125 -4.453125 C 3.519531 -4.328125 3.707031 -4.15625 3.84375 -3.9375 C 3.976562 -3.71875 4.046875 -3.453125 4.046875 -3.140625 C 4.046875 -2.765625 3.945312 -2.453125 3.75 -2.203125 C 3.550781 -1.960938 3.285156 -1.800781 2.953125 -1.71875 L 4.109375 0 L 3.40625 0 L 2.28125 -1.65625 L 1.265625 -1.65625 L 1.265625 0 Z M 1.265625 -2.21875 L 2.375 -2.21875 C 2.71875 -2.21875 2.976562 -2.296875 3.15625 -2.453125 C 3.34375 -2.617188 3.4375 -2.847656 3.4375 -3.140625 C 3.4375 -3.441406 3.34375 -3.671875 3.15625 -3.828125 C 2.976562 -3.992188 2.71875 -4.078125 2.375 -4.078125 L 1.265625 -4.078125 Z M 1.265625 -2.21875 "/></g></g></g><g fill="#013479" fill-opacity="1"><g transform="translate(37.52518, 40.771125)"><g><path d="M 2.640625 0.09375 C 2.160156 0.09375 1.738281 -0.00390625 1.375 -0.203125 C 1.019531 -0.398438 0.738281 -0.679688 0.53125 -1.046875 C 0.320312 -1.410156 0.21875 -1.832031 0.21875 -2.3125 C 0.21875 -2.78125 0.316406 -3.195312 0.515625 -3.5625 C 0.722656 -3.925781 1.007812 -4.207031 1.375 -4.40625 C 1.738281 -4.613281 2.15625 -4.71875 2.625 -4.71875 C 3.039062 -4.71875 3.414062 -4.632812 3.75 -4.46875 C 4.082031 -4.3125 4.363281 -4.085938 4.59375 -3.796875 C 4.820312 -3.515625 4.972656 -3.179688 5.046875 -2.796875 L 3.703125 -2.796875 C 3.628906 -3.003906 3.5 -3.171875 3.3125 -3.296875 C 3.132812 -3.421875 2.925781 -3.484375 2.6875 -3.484375 C 2.46875 -3.484375 2.273438 -3.429688 2.109375 -3.328125 C 1.941406 -3.234375 1.8125 -3.097656 1.71875 -2.921875 C 1.625 -2.742188 1.578125 -2.539062 1.578125 -2.3125 C 1.578125 -2.082031 1.625 -1.878906 1.71875 -1.703125 C 1.8125 -1.523438 1.9375 -1.382812 2.09375 -1.28125 C 2.257812 -1.1875 2.453125 -1.140625 2.671875 -1.140625 C 2.921875 -1.140625 3.132812 -1.203125 3.3125 -1.328125 C 3.5 -1.453125 3.632812 -1.625 3.71875 -1.84375 L 5.078125 -1.84375 C 5.015625 -1.457031 4.867188 -1.113281 4.640625 -0.8125 C 4.421875 -0.519531 4.140625 -0.296875 3.796875 -0.140625 C 3.453125 0.015625 3.066406 0.09375 2.640625 0.09375 Z M 2.640625 0.09375 "/></g></g></g><g fill="#013479" fill-opacity="1"><g transform="translate(42.818422, 40.771125)"><g><path d="M 2.734375 0.09375 C 2.367188 0.09375 2.03125 0.0351562 1.71875 -0.078125 C 1.414062 -0.191406 1.148438 -0.351562 0.921875 -0.5625 C 0.703125 -0.78125 0.53125 -1.035156 0.40625 -1.328125 C 0.28125 -1.628906 0.21875 -1.957031 0.21875 -2.3125 C 0.21875 -2.65625 0.28125 -2.972656 0.40625 -3.265625 C 0.53125 -3.566406 0.703125 -3.820312 0.921875 -4.03125 C 1.148438 -4.25 1.414062 -4.414062 1.71875 -4.53125 C 2.03125 -4.65625 2.367188 -4.71875 2.734375 -4.71875 C 3.109375 -4.71875 3.445312 -4.65625 3.75 -4.53125 C 4.050781 -4.414062 4.3125 -4.25 4.53125 -4.03125 C 4.757812 -3.820312 4.9375 -3.566406 5.0625 -3.265625 C 5.1875 -2.972656 5.25 -2.65625 5.25 -2.3125 C 5.25 -1.957031 5.1875 -1.628906 5.0625 -1.328125 C 4.9375 -1.035156 4.757812 -0.78125 4.53125 -0.5625 C 4.3125 -0.351562 4.050781 -0.191406 3.75 -0.078125 C 3.445312 0.0351562 3.109375 0.09375 2.734375 0.09375 Z M 1.578125 -2.3125 C 1.578125 -2.082031 1.625 -1.878906 1.71875 -1.703125 C 1.820312 -1.523438 1.960938 -1.382812 2.140625 -1.28125 C 2.316406 -1.1875 2.515625 -1.140625 2.734375 -1.140625 C 2.960938 -1.140625 3.160156 -1.1875 3.328125 -1.28125 C 3.503906 -1.382812 3.640625 -1.523438 3.734375 -1.703125 C 3.835938 -1.878906 3.890625 -2.082031 3.890625 -2.3125 C 3.890625 -2.539062 3.835938 -2.742188 3.734375 -2.921875 C 3.640625 -3.097656 3.503906 -3.234375 3.328125 -3.328125 C 3.160156 -3.429688 2.960938 -3.484375 2.734375 -3.484375 C 2.515625 -3.484375 2.316406 -3.429688 2.140625 -3.328125 C 1.960938 -3.234375 1.820312 -3.097656 1.71875 -2.921875 C 1.625 -2.742188 1.578125 -2.539062 1.578125 -2.3125 Z M 1.578125 -2.3125 "/></g></g></g><g fill="#013479" fill-opacity="1"><g transform="translate(48.303067, 40.771125)"><g><path d="M 0.484375 0 L 0.484375 -4.609375 L 1.578125 -4.609375 L 3.328125 -2.28125 L 3.328125 -4.609375 L 4.640625 -4.609375 L 4.640625 0 L 3.5625 0 L 1.8125 -2.359375 L 1.8125 0 Z M 0.484375 0 "/></g></g></g><g fill="#013479" fill-opacity="1"><g transform="translate(53.444508, 40.771125)"><g><path d="M 0.484375 0 L 0.484375 -4.609375 L 1.578125 -4.609375 L 3.328125 -2.28125 L 3.328125 -4.609375 L 4.640625 -4.609375 L 4.640625 0 L 3.5625 0 L 1.8125 -2.359375 L 1.8125 0 Z M 0.484375 0 "/></g></g></g><g fill="#013479" fill-opacity="1"><g transform="translate(58.585949, 40.771125)"><g><path d="M 0.484375 0 L 0.484375 -4.609375 L 3.65625 -4.609375 L 3.65625 -3.546875 L 1.8125 -3.546875 L 1.8125 -2.875 L 3.46875 -2.875 L 3.46875 -1.796875 L 1.8125 -1.796875 L 1.8125 -1.09375 L 3.71875 -1.09375 L 3.71875 0 Z M 0.484375 0 "/></g></g></g><g fill="#013479" fill-opacity="1"><g transform="translate(62.611981, 40.771125)"><g><path d="M 2.640625 0.09375 C 2.160156 0.09375 1.738281 -0.00390625 1.375 -0.203125 C 1.019531 -0.398438 0.738281 -0.679688 0.53125 -1.046875 C 0.320312 -1.410156 0.21875 -1.832031 0.21875 -2.3125 C 0.21875 -2.78125 0.316406 -3.195312 0.515625 -3.5625 C 0.722656 -3.925781 1.007812 -4.207031 1.375 -4.40625 C 1.738281 -4.613281 2.15625 -4.71875 2.625 -4.71875 C 3.039062 -4.71875 3.414062 -4.632812 3.75 -4.46875 C 4.082031 -4.3125 4.363281 -4.085938 4.59375 -3.796875 C 4.820312 -3.515625 4.972656 -3.179688 5.046875 -2.796875 L 3.703125 -2.796875 C 3.628906 -3.003906 3.5 -3.171875 3.3125 -3.296875 C 3.132812 -3.421875 2.925781 -3.484375 2.6875 -3.484375 C 2.46875 -3.484375 2.273438 -3.429688 2.109375 -3.328125 C 1.941406 -3.234375 1.8125 -3.097656 1.71875 -2.921875 C 1.625 -2.742188 1.578125 -2.539062 1.578125 -2.3125 C 1.578125 -2.082031 1.625 -1.878906 1.71875 -1.703125 C 1.8125 -1.523438 1.9375 -1.382812 2.09375 -1.28125 C 2.257812 -1.1875 2.453125 -1.140625 2.671875 -1.140625 C 2.921875 -1.140625 3.132812 -1.203125 3.3125 -1.328125 C 3.5 -1.453125 3.632812 -1.625 3.71875 -1.84375 L 5.078125 -1.84375 C 5.015625 -1.457031 4.867188 -1.113281 4.640625 -0.8125 C 4.421875 -0.519531 4.140625 -0.296875 3.796875 -0.140625 C 3.453125 0.015625 3.066406 0.09375 2.640625 0.09375 Z M 2.640625 0.09375 "/></g></g></g><g fill="#013479" fill-opacity="1"><g transform="translate(67.905223, 40.771125)"><g><path d="M 1.59375 0 L 1.59375 -3.375 L 0.1875 -3.375 L 0.1875 -4.609375 L 4.3125 -4.609375 L 4.3125 -3.375 L 2.921875 -3.375 L 2.921875 0 Z M 1.59375 0 "/></g></g></g></svg>