<svg xmlns="http://www.w3.org/2000/svg" xmlns:xlink="http://www.w3.org/1999/xlink" width="150" zoomAndPan="magnify" viewBox="0 0 112.5 30.000001" height="40" preserveAspectRatio="xMidYMid meet" version="1.0"><defs><g/><clipPath id="a9ff8f34dd"><path d="M 3.316406 5.105469 L 109.472656 5.105469 L 109.472656 23.25 L 3.316406 23.25 Z M 3.316406 5.105469 " clip-rule="nonzero"/></clipPath><clipPath id="34b19b664e"><path d="M 3.316406 5.105469 L 109.28125 5.105469 L 109.28125 23.25 L 3.316406 23.25 Z M 3.316406 5.105469 " clip-rule="nonzero"/></clipPath><clipPath id="5dfd647f45"><path d="M 6.21875 7.355469 L 54.121094 7.355469 L 54.121094 20.535156 L 6.21875 20.535156 Z M 6.21875 7.355469 " clip-rule="nonzero"/></clipPath></defs><g clip-path="url(#a9ff8f34dd)"><path fill="#ffffff" d="M 3.316406 5.105469 L 109.492188 5.105469 L 109.492188 23.25 L 3.316406 23.25 Z M 3.316406 5.105469 " fill-opacity="1" fill-rule="nonzero"/></g><g clip-path="url(#34b19b664e)"><path stroke-linecap="butt" transform="matrix(0.725806, 0, 0, 0.725806, 3.314514, 5.104385)" fill="none" stroke-linejoin="miter" d="M 0.00260654 0.00149382 L 146.251566 0.00149382 L 146.251566 25.000626 L 0.00260654 25.000626 Z M 0.00260654 0.00149382 " stroke="#013479" stroke-width="2" stroke-opacity="1" stroke-miterlimit="4"/></g><g clip-path="url(#5dfd647f45)"><path fill="#013479" d="M 6.21875 7.355469 L 54.101562 7.355469 L 54.101562 20.535156 L 6.21875 20.535156 Z M 6.21875 7.355469 " fill-opacity="1" fill-rule="nonzero"/></g><g fill="#ffffff" fill-opacity="1"><g transform="translate(8.049717, 16.69355)"><g><path d="M 4 0.125 C 3.5 0.125 3.035156 0.0390625 2.609375 -0.125 C 2.191406 -0.300781 1.828125 -0.546875 1.515625 -0.859375 C 1.210938 -1.179688 0.976562 -1.554688 0.8125 -1.984375 C 0.644531 -2.410156 0.5625 -2.878906 0.5625 -3.390625 C 0.5625 -3.898438 0.644531 -4.367188 0.8125 -4.796875 C 0.976562 -5.234375 1.210938 -5.609375 1.515625 -5.921875 C 1.828125 -6.234375 2.191406 -6.476562 2.609375 -6.65625 C 3.035156 -6.832031 3.5 -6.921875 4 -6.921875 C 4.53125 -6.921875 5.019531 -6.820312 5.46875 -6.625 C 5.925781 -6.425781 6.3125 -6.144531 6.625 -5.78125 C 6.945312 -5.414062 7.179688 -4.984375 7.328125 -4.484375 L 6.421875 -4.484375 C 6.242188 -4.972656 5.941406 -5.359375 5.515625 -5.640625 C 5.085938 -5.921875 4.59375 -6.0625 4.03125 -6.0625 C 3.519531 -6.0625 3.070312 -5.945312 2.6875 -5.71875 C 2.300781 -5.5 1.992188 -5.1875 1.765625 -4.78125 C 1.546875 -4.382812 1.4375 -3.921875 1.4375 -3.390625 C 1.4375 -2.867188 1.546875 -2.40625 1.765625 -2 C 1.992188 -1.601562 2.300781 -1.289062 2.6875 -1.0625 C 3.070312 -0.84375 3.519531 -0.734375 4.03125 -0.734375 C 4.601562 -0.734375 5.113281 -0.878906 5.5625 -1.171875 C 6.007812 -1.472656 6.316406 -1.878906 6.484375 -2.390625 L 7.390625 -2.390625 C 7.253906 -1.878906 7.019531 -1.4375 6.6875 -1.0625 C 6.363281 -0.6875 5.972656 -0.394531 5.515625 -0.1875 C 5.054688 0.0195312 4.550781 0.125 4 0.125 Z M 4 0.125 "/></g></g></g><g fill="#ffffff" fill-opacity="1"><g transform="translate(16.699925, 16.69355)"><g><path d="M 0.171875 0 L 2.953125 -6.796875 L 3.75 -6.796875 L 6.546875 0 L 5.640625 0 L 5 -1.546875 L 1.703125 -1.546875 L 1.078125 0 Z M 2.03125 -2.34375 L 4.6875 -2.34375 L 3.359375 -5.59375 Z M 2.03125 -2.34375 "/></g></g></g><g fill="#ffffff" fill-opacity="1"><g transform="translate(24.147794, 16.69355)"><g><path d="M 0.984375 0 L 0.984375 -6.796875 L 3.578125 -6.796875 C 4.046875 -6.796875 4.457031 -6.707031 4.8125 -6.53125 C 5.164062 -6.351562 5.4375 -6.097656 5.625 -5.765625 C 5.820312 -5.441406 5.921875 -5.054688 5.921875 -4.609375 C 5.921875 -4.054688 5.773438 -3.597656 5.484375 -3.234375 C 5.203125 -2.878906 4.8125 -2.640625 4.3125 -2.515625 L 6.03125 0 L 5 0 L 3.34375 -2.4375 L 1.84375 -2.4375 L 1.84375 0 Z M 1.84375 -3.25 L 3.484375 -3.25 C 3.984375 -3.25 4.367188 -3.363281 4.640625 -3.59375 C 4.910156 -3.832031 5.046875 -4.171875 5.046875 -4.609375 C 5.046875 -5.046875 4.910156 -5.382812 4.640625 -5.625 C 4.367188 -5.863281 3.984375 -5.984375 3.484375 -5.984375 L 1.84375 -5.984375 Z M 1.84375 -3.25 "/></g></g></g><g fill="#ffffff" fill-opacity="1"><g transform="translate(31.489001, 16.69355)"><g><path d="M 0.984375 0 L 0.984375 -6.796875 L 5.109375 -6.796875 L 5.109375 -6 L 1.84375 -6 L 1.84375 -3.859375 L 4.875 -3.859375 L 4.875 -3.0625 L 1.84375 -3.0625 L 1.84375 -0.796875 L 5.21875 -0.796875 L 5.21875 0 Z M 0.984375 0 "/></g></g></g><g fill="#ffffff" fill-opacity="1"><g transform="translate(38.073901, 16.69355)"><g><path d="M 0.984375 0 L 0.984375 -6.796875 L 5.109375 -6.796875 L 5.109375 -6 L 1.84375 -6 L 1.84375 -3.859375 L 4.875 -3.859375 L 4.875 -3.0625 L 1.84375 -3.0625 L 1.84375 -0.796875 L 5.21875 -0.796875 L 5.21875 0 Z M 0.984375 0 "/></g></g></g><g fill="#ffffff" fill-opacity="1"><g transform="translate(44.658801, 16.69355)"><g><path d="M 0.984375 0 L 0.984375 -6.796875 L 3.578125 -6.796875 C 4.046875 -6.796875 4.457031 -6.707031 4.8125 -6.53125 C 5.164062 -6.351562 5.4375 -6.097656 5.625 -5.765625 C 5.820312 -5.441406 5.921875 -5.054688 5.921875 -4.609375 C 5.921875 -4.054688 5.773438 -3.597656 5.484375 -3.234375 C 5.203125 -2.878906 4.8125 -2.640625 4.3125 -2.515625 L 6.03125 0 L 5 0 L 3.34375 -2.4375 L 1.84375 -2.4375 L 1.84375 0 Z M 1.84375 -3.25 L 3.484375 -3.25 C 3.984375 -3.25 4.367188 -3.363281 4.640625 -3.59375 C 4.910156 -3.832031 5.046875 -4.171875 5.046875 -4.609375 C 5.046875 -5.046875 4.910156 -5.382812 4.640625 -5.625 C 4.367188 -5.863281 3.984375 -5.984375 3.484375 -5.984375 L 1.84375 -5.984375 Z M 1.84375 -3.25 "/></g></g></g><g fill="#013479" fill-opacity="1"><g transform="translate(56.219, 16.696925)"><g><path d="M 3.875 0.140625 C 3.175781 0.140625 2.5625 -0.00390625 2.03125 -0.296875 C 1.5 -0.597656 1.082031 -1.015625 0.78125 -1.546875 C 0.476562 -2.078125 0.328125 -2.691406 0.328125 -3.390625 C 0.328125 -4.085938 0.472656 -4.703125 0.765625 -5.234375 C 1.066406 -5.765625 1.484375 -6.175781 2.015625 -6.46875 C 2.546875 -6.769531 3.160156 -6.921875 3.859375 -6.921875 C 4.460938 -6.921875 5.007812 -6.800781 5.5 -6.5625 C 5.988281 -6.332031 6.398438 -6.007812 6.734375 -5.59375 C 7.066406 -5.175781 7.289062 -4.675781 7.40625 -4.09375 L 5.4375 -4.09375 C 5.332031 -4.40625 5.144531 -4.648438 4.875 -4.828125 C 4.601562 -5.015625 4.289062 -5.109375 3.9375 -5.109375 C 3.625 -5.109375 3.34375 -5.035156 3.09375 -4.890625 C 2.851562 -4.742188 2.660156 -4.539062 2.515625 -4.28125 C 2.378906 -4.019531 2.3125 -3.722656 2.3125 -3.390625 C 2.3125 -3.046875 2.378906 -2.742188 2.515625 -2.484375 C 2.648438 -2.222656 2.835938 -2.019531 3.078125 -1.875 C 3.316406 -1.726562 3.597656 -1.65625 3.921875 -1.65625 C 4.285156 -1.65625 4.601562 -1.75 4.875 -1.9375 C 5.144531 -2.132812 5.34375 -2.390625 5.46875 -2.703125 L 7.453125 -2.703125 C 7.347656 -2.128906 7.128906 -1.628906 6.796875 -1.203125 C 6.472656 -0.773438 6.0625 -0.441406 5.5625 -0.203125 C 5.0625 0.0234375 4.5 0.140625 3.875 0.140625 Z M 3.875 0.140625 "/></g></g></g><g fill="#013479" fill-opacity="1"><g transform="translate(63.97723, 16.696925)"><g><path d="M 4.015625 0.140625 C 3.472656 0.140625 2.976562 0.0546875 2.53125 -0.109375 C 2.082031 -0.285156 1.691406 -0.53125 1.359375 -0.84375 C 1.035156 -1.15625 0.78125 -1.523438 0.59375 -1.953125 C 0.414062 -2.390625 0.328125 -2.867188 0.328125 -3.390625 C 0.328125 -3.898438 0.414062 -4.367188 0.59375 -4.796875 C 0.78125 -5.234375 1.035156 -5.609375 1.359375 -5.921875 C 1.691406 -6.242188 2.082031 -6.488281 2.53125 -6.65625 C 2.976562 -6.832031 3.472656 -6.921875 4.015625 -6.921875 C 4.554688 -6.921875 5.050781 -6.832031 5.5 -6.65625 C 5.945312 -6.488281 6.332031 -6.242188 6.65625 -5.921875 C 6.988281 -5.609375 7.242188 -5.234375 7.421875 -4.796875 C 7.609375 -4.367188 7.703125 -3.898438 7.703125 -3.390625 C 7.703125 -2.867188 7.609375 -2.390625 7.421875 -1.953125 C 7.242188 -1.523438 6.988281 -1.15625 6.65625 -0.84375 C 6.332031 -0.53125 5.945312 -0.285156 5.5 -0.109375 C 5.050781 0.0546875 4.554688 0.140625 4.015625 0.140625 Z M 2.3125 -3.390625 C 2.3125 -3.046875 2.382812 -2.742188 2.53125 -2.484375 C 2.675781 -2.222656 2.875 -2.019531 3.125 -1.875 C 3.382812 -1.726562 3.679688 -1.65625 4.015625 -1.65625 C 4.347656 -1.65625 4.640625 -1.726562 4.890625 -1.875 C 5.148438 -2.019531 5.351562 -2.222656 5.5 -2.484375 C 5.644531 -2.742188 5.71875 -3.046875 5.71875 -3.390625 C 5.71875 -3.722656 5.644531 -4.019531 5.5 -4.28125 C 5.351562 -4.539062 5.148438 -4.742188 4.890625 -4.890625 C 4.640625 -5.035156 4.347656 -5.109375 4.015625 -5.109375 C 3.679688 -5.109375 3.382812 -5.035156 3.125 -4.890625 C 2.875 -4.742188 2.675781 -4.539062 2.53125 -4.28125 C 2.382812 -4.019531 2.3125 -3.722656 2.3125 -3.390625 Z M 2.3125 -3.390625 "/></g></g></g><g fill="#013479" fill-opacity="1"><g transform="translate(72.015999, 16.696925)"><g><path d="M 0.71875 0 L 0.71875 -6.765625 L 2.3125 -6.765625 L 4.890625 -3.34375 L 4.890625 -6.765625 L 6.8125 -6.765625 L 6.8125 0 L 5.21875 0 L 2.65625 -3.453125 L 2.65625 0 Z M 0.71875 0 "/></g></g></g><g fill="#013479" fill-opacity="1"><g transform="translate(79.551734, 16.696925)"><g><path d="M 0.71875 0 L 0.71875 -6.765625 L 2.3125 -6.765625 L 4.890625 -3.34375 L 4.890625 -6.765625 L 6.8125 -6.765625 L 6.8125 0 L 5.21875 0 L 2.65625 -3.453125 L 2.65625 0 Z M 0.71875 0 "/></g></g></g><g fill="#013479" fill-opacity="1"><g transform="translate(87.087469, 16.696925)"><g><path d="M 0.71875 0 L 0.71875 -6.765625 L 5.359375 -6.765625 L 5.359375 -5.1875 L 2.65625 -5.1875 L 2.65625 -4.203125 L 5.09375 -4.203125 L 5.09375 -2.640625 L 2.65625 -2.640625 L 2.65625 -1.59375 L 5.46875 -1.59375 L 5.46875 0 Z M 0.71875 0 "/></g></g></g><g fill="#013479" fill-opacity="1"><g transform="translate(92.988368, 16.696925)"><g><path d="M 3.875 0.140625 C 3.175781 0.140625 2.5625 -0.00390625 2.03125 -0.296875 C 1.5 -0.597656 1.082031 -1.015625 0.78125 -1.546875 C 0.476562 -2.078125 0.328125 -2.691406 0.328125 -3.390625 C 0.328125 -4.085938 0.472656 -4.703125 0.765625 -5.234375 C 1.066406 -5.765625 1.484375 -6.175781 2.015625 -6.46875 C 2.546875 -6.769531 3.160156 -6.921875 3.859375 -6.921875 C 4.460938 -6.921875 5.007812 -6.800781 5.5 -6.5625 C 5.988281 -6.332031 6.398438 -6.007812 6.734375 -5.59375 C 7.066406 -5.175781 7.289062 -4.675781 7.40625 -4.09375 L 5.4375 -4.09375 C 5.332031 -4.40625 5.144531 -4.648438 4.875 -4.828125 C 4.601562 -5.015625 4.289062 -5.109375 3.9375 -5.109375 C 3.625 -5.109375 3.34375 -5.035156 3.09375 -4.890625 C 2.851562 -4.742188 2.660156 -4.539062 2.515625 -4.28125 C 2.378906 -4.019531 2.3125 -3.722656 2.3125 -3.390625 C 2.3125 -3.046875 2.378906 -2.742188 2.515625 -2.484375 C 2.648438 -2.222656 2.835938 -2.019531 3.078125 -1.875 C 3.316406 -1.726562 3.597656 -1.65625 3.921875 -1.65625 C 4.285156 -1.65625 4.601562 -1.75 4.875 -1.9375 C 5.144531 -2.132812 5.34375 -2.390625 5.46875 -2.703125 L 7.453125 -2.703125 C 7.347656 -2.128906 7.128906 -1.628906 6.796875 -1.203125 C 6.472656 -0.773438 6.0625 -0.441406 5.5625 -0.203125 C 5.0625 0.0234375 4.5 0.140625 3.875 0.140625 Z M 3.875 0.140625 "/></g></g></g><g fill="#013479" fill-opacity="1"><g transform="translate(100.746598, 16.696925)"><g><path d="M 2.328125 0 L 2.328125 -4.96875 L 0.265625 -4.96875 L 0.265625 -6.765625 L 6.328125 -6.765625 L 6.328125 -4.96875 L 4.28125 -4.96875 L 4.28125 0 Z M 2.328125 0 "/></g></g></g></svg>