<svg xmlns="http://www.w3.org/2000/svg" xmlns:xlink="http://www.w3.org/1999/xlink" width="100" zoomAndPan="magnify" viewBox="0 0 75 74.999997" height="100" preserveAspectRatio="xMidYMid meet" version="1.0"><defs><g/><clipPath id="3f97010aa9"><path d="M 8.566406 30.292969 L 69.582031 30.292969 L 69.582031 44.707031 L 8.566406 44.707031 Z M 8.566406 30.292969 " clip-rule="nonzero"/></clipPath><clipPath id="58e732ec72"><path d="M 8.566406 30.292969 L 69.316406 30.292969 L 69.316406 44.542969 L 8.566406 44.542969 Z M 8.566406 30.292969 " clip-rule="nonzero"/></clipPath><clipPath id="b8e6e84f17"><path d="M 9.664062 31.648438 L 37.464844 31.648438 L 37.464844 43.351562 L 9.664062 43.351562 Z M 9.664062 31.648438 " clip-rule="nonzero"/></clipPath></defs><g clip-path="url(#3f97010aa9)"><path fill="#ffffff" d="M 8.566406 30.292969 L 69.601562 30.292969 L 69.601562 44.707031 L 8.566406 44.707031 Z M 8.566406 30.292969 " fill-opacity="1" fill-rule="nonzero"/></g><g clip-path="url(#58e732ec72)"><path stroke-linecap="butt" transform="matrix(0.75, 0, 0, 0.75, 8.567073, 30.293535)" fill="none" stroke-linejoin="miter" d="M -0.000889587 -0.000754688 L 81.342862 -0.000754688 L 81.342862 19.217996 L -0.000889587 19.217996 Z M -0.000889587 -0.000754688 " stroke="#013479" stroke-width="2" stroke-opacity="1" stroke-miterlimit="4"/></g><g clip-path="url(#b8e6e84f17)"><path fill="#013479" d="M 9.664062 31.648438 L 37.460938 31.648438 L 37.460938 43.351562 L 9.664062 43.351562 Z M 9.664062 31.648438 " fill-opacity="1" fill-rule="nonzero"/></g><g fill="#ffffff" fill-opacity="1"><g transform="translate(11.050697, 39.323649)"><g><path d="M 2.3125 0.078125 C 2.03125 0.078125 1.765625 0.0234375 1.515625 -0.078125 C 1.273438 -0.179688 1.066406 -0.320312 0.890625 -0.5 C 0.710938 -0.6875 0.570312 -0.90625 0.46875 -1.15625 C 0.375 -1.40625 0.328125 -1.675781 0.328125 -1.96875 C 0.328125 -2.257812 0.375 -2.53125 0.46875 -2.78125 C 0.570312 -3.03125 0.710938 -3.242188 0.890625 -3.421875 C 1.066406 -3.609375 1.273438 -3.753906 1.515625 -3.859375 C 1.765625 -3.960938 2.03125 -4.015625 2.3125 -4.015625 C 2.625 -4.015625 2.910156 -3.957031 3.171875 -3.84375 C 3.429688 -3.726562 3.65625 -3.5625 3.84375 -3.34375 C 4.03125 -3.132812 4.164062 -2.882812 4.25 -2.59375 L 3.71875 -2.59375 C 3.625 -2.882812 3.453125 -3.109375 3.203125 -3.265625 C 2.953125 -3.429688 2.660156 -3.515625 2.328125 -3.515625 C 2.035156 -3.515625 1.773438 -3.445312 1.546875 -3.3125 C 1.328125 -3.1875 1.148438 -3.003906 1.015625 -2.765625 C 0.890625 -2.535156 0.828125 -2.269531 0.828125 -1.96875 C 0.828125 -1.664062 0.890625 -1.394531 1.015625 -1.15625 C 1.148438 -0.925781 1.328125 -0.742188 1.546875 -0.609375 C 1.773438 -0.484375 2.035156 -0.421875 2.328125 -0.421875 C 2.660156 -0.421875 2.957031 -0.503906 3.21875 -0.671875 C 3.476562 -0.847656 3.660156 -1.085938 3.765625 -1.390625 L 4.28125 -1.390625 C 4.207031 -1.085938 4.070312 -0.828125 3.875 -0.609375 C 3.6875 -0.398438 3.457031 -0.234375 3.1875 -0.109375 C 2.925781 0.015625 2.632812 0.078125 2.3125 0.078125 Z M 2.3125 0.078125 "/></g></g></g><g fill="#ffffff" fill-opacity="1"><g transform="translate(16.059998, 39.323649)"><g><path d="M 0.09375 0 L 1.71875 -3.9375 L 2.171875 -3.9375 L 3.796875 0 L 3.28125 0 L 2.90625 -0.890625 L 0.984375 -0.890625 L 0.625 0 Z M 1.171875 -1.359375 L 2.71875 -1.359375 L 1.953125 -3.25 Z M 1.171875 -1.359375 "/></g></g></g><g fill="#ffffff" fill-opacity="1"><g transform="translate(20.372964, 39.323649)"><g><path d="M 0.578125 0 L 0.578125 -3.9375 L 2.078125 -3.9375 C 2.347656 -3.9375 2.582031 -3.882812 2.78125 -3.78125 C 2.988281 -3.675781 3.148438 -3.53125 3.265625 -3.34375 C 3.378906 -3.15625 3.4375 -2.929688 3.4375 -2.671875 C 3.4375 -2.347656 3.351562 -2.082031 3.1875 -1.875 C 3.019531 -1.664062 2.789062 -1.53125 2.5 -1.46875 L 3.5 0 L 2.890625 0 L 1.9375 -1.40625 L 1.0625 -1.40625 L 1.0625 0 Z M 1.0625 -1.890625 L 2.015625 -1.890625 C 2.304688 -1.890625 2.53125 -1.957031 2.6875 -2.09375 C 2.84375 -2.226562 2.921875 -2.421875 2.921875 -2.671875 C 2.921875 -2.921875 2.84375 -3.113281 2.6875 -3.25 C 2.53125 -3.394531 2.304688 -3.46875 2.015625 -3.46875 L 1.0625 -3.46875 Z M 1.0625 -1.890625 "/></g></g></g><g fill="#ffffff" fill-opacity="1"><g transform="translate(24.624159, 39.323649)"><g><path d="M 0.578125 0 L 0.578125 -3.9375 L 2.96875 -3.9375 L 2.96875 -3.46875 L 1.0625 -3.46875 L 1.0625 -2.234375 L 2.828125 -2.234375 L 2.828125 -1.78125 L 1.0625 -1.78125 L 1.0625 -0.46875 L 3.03125 -0.46875 L 3.03125 0 Z M 0.578125 0 "/></g></g></g><g fill="#ffffff" fill-opacity="1"><g transform="translate(28.437336, 39.323649)"><g><path d="M 0.578125 0 L 0.578125 -3.9375 L 2.96875 -3.9375 L 2.96875 -3.46875 L 1.0625 -3.46875 L 1.0625 -2.234375 L 2.828125 -2.234375 L 2.828125 -1.78125 L 1.0625 -1.78125 L 1.0625 -0.46875 L 3.03125 -0.46875 L 3.03125 0 Z M 0.578125 0 "/></g></g></g><g fill="#ffffff" fill-opacity="1"><g transform="translate(32.250513, 39.323649)"><g><path d="M 0.578125 0 L 0.578125 -3.9375 L 2.078125 -3.9375 C 2.347656 -3.9375 2.582031 -3.882812 2.78125 -3.78125 C 2.988281 -3.675781 3.148438 -3.53125 3.265625 -3.34375 C 3.378906 -3.15625 3.4375 -2.929688 3.4375 -2.671875 C 3.4375 -2.347656 3.351562 -2.082031 3.1875 -1.875 C 3.019531 -1.664062 2.789062 -1.53125 2.5 -1.46875 L 3.5 0 L 2.890625 0 L 1.9375 -1.40625 L 1.0625 -1.40625 L 1.0625 0 Z M 1.0625 -1.890625 L 2.015625 -1.890625 C 2.304688 -1.890625 2.53125 -1.957031 2.6875 -2.09375 C 2.84375 -2.226562 2.921875 -2.421875 2.921875 -2.671875 C 2.921875 -2.921875 2.84375 -3.113281 2.6875 -3.25 C 2.53125 -3.394531 2.304688 -3.46875 2.015625 -3.46875 L 1.0625 -3.46875 Z M 1.0625 -1.890625 "/></g></g></g><g fill="#013479" fill-opacity="1"><g transform="translate(38.098598, 39.353901)"><g><path d="M 2.25 0.078125 C 1.84375 0.078125 1.484375 -0.00390625 1.171875 -0.171875 C 0.867188 -0.347656 0.628906 -0.585938 0.453125 -0.890625 C 0.273438 -1.203125 0.1875 -1.5625 0.1875 -1.96875 C 0.1875 -2.375 0.269531 -2.726562 0.4375 -3.03125 C 0.613281 -3.34375 0.859375 -3.582031 1.171875 -3.75 C 1.484375 -3.925781 1.84375 -4.015625 2.25 -4.015625 C 2.59375 -4.015625 2.90625 -3.945312 3.1875 -3.8125 C 3.476562 -3.675781 3.71875 -3.488281 3.90625 -3.25 C 4.101562 -3.007812 4.238281 -2.722656 4.3125 -2.390625 L 3.15625 -2.390625 C 3.101562 -2.566406 2.992188 -2.707031 2.828125 -2.8125 C 2.671875 -2.914062 2.492188 -2.96875 2.296875 -2.96875 C 2.109375 -2.96875 1.941406 -2.925781 1.796875 -2.84375 C 1.660156 -2.757812 1.550781 -2.640625 1.46875 -2.484375 C 1.382812 -2.335938 1.34375 -2.164062 1.34375 -1.96875 C 1.34375 -1.769531 1.378906 -1.59375 1.453125 -1.4375 C 1.535156 -1.289062 1.644531 -1.175781 1.78125 -1.09375 C 1.925781 -1.007812 2.09375 -0.96875 2.28125 -0.96875 C 2.488281 -0.96875 2.671875 -1.019531 2.828125 -1.125 C 2.992188 -1.238281 3.109375 -1.390625 3.171875 -1.578125 L 4.328125 -1.578125 C 4.273438 -1.242188 4.148438 -0.953125 3.953125 -0.703125 C 3.765625 -0.453125 3.523438 -0.257812 3.234375 -0.125 C 2.941406 0.0078125 2.613281 0.078125 2.25 0.078125 Z M 2.25 0.078125 "/></g></g></g><g fill="#013479" fill-opacity="1"><g transform="translate(42.603434, 39.353901)"><g><path d="M 2.328125 0.078125 C 2.015625 0.078125 1.726562 0.03125 1.46875 -0.0625 C 1.207031 -0.164062 0.976562 -0.304688 0.78125 -0.484375 C 0.59375 -0.671875 0.445312 -0.890625 0.34375 -1.140625 C 0.238281 -1.390625 0.1875 -1.664062 0.1875 -1.96875 C 0.1875 -2.269531 0.238281 -2.546875 0.34375 -2.796875 C 0.445312 -3.046875 0.59375 -3.257812 0.78125 -3.4375 C 0.976562 -3.625 1.207031 -3.765625 1.46875 -3.859375 C 1.726562 -3.960938 2.015625 -4.015625 2.328125 -4.015625 C 2.648438 -4.015625 2.941406 -3.960938 3.203125 -3.859375 C 3.460938 -3.765625 3.6875 -3.625 3.875 -3.4375 C 4.0625 -3.257812 4.207031 -3.046875 4.3125 -2.796875 C 4.425781 -2.546875 4.484375 -2.269531 4.484375 -1.96875 C 4.484375 -1.664062 4.425781 -1.390625 4.3125 -1.140625 C 4.207031 -0.890625 4.0625 -0.671875 3.875 -0.484375 C 3.6875 -0.304688 3.460938 -0.164062 3.203125 -0.0625 C 2.941406 0.03125 2.648438 0.078125 2.328125 0.078125 Z M 1.34375 -1.96875 C 1.34375 -1.769531 1.382812 -1.59375 1.46875 -1.4375 C 1.550781 -1.289062 1.664062 -1.175781 1.8125 -1.09375 C 1.96875 -1.007812 2.140625 -0.96875 2.328125 -0.96875 C 2.523438 -0.96875 2.695312 -1.007812 2.84375 -1.09375 C 3 -1.175781 3.117188 -1.289062 3.203125 -1.4375 C 3.285156 -1.59375 3.328125 -1.769531 3.328125 -1.96875 C 3.328125 -2.164062 3.285156 -2.335938 3.203125 -2.484375 C 3.117188 -2.640625 3 -2.757812 2.84375 -2.84375 C 2.695312 -2.925781 2.523438 -2.96875 2.328125 -2.96875 C 2.140625 -2.96875 1.96875 -2.925781 1.8125 -2.84375 C 1.664062 -2.757812 1.550781 -2.640625 1.46875 -2.484375 C 1.382812 -2.335938 1.34375 -2.164062 1.34375 -1.96875 Z M 1.34375 -1.96875 "/></g></g></g><g fill="#013479" fill-opacity="1"><g transform="translate(47.271164, 39.353901)"><g><path d="M 0.421875 0 L 0.421875 -3.9375 L 1.34375 -3.9375 L 2.84375 -1.9375 L 2.84375 -3.9375 L 3.953125 -3.9375 L 3.953125 0 L 3.03125 0 L 1.546875 -2.015625 L 1.546875 0 Z M 0.421875 0 "/></g></g></g><g fill="#013479" fill-opacity="1"><g transform="translate(51.64681, 39.353901)"><g><path d="M 0.421875 0 L 0.421875 -3.9375 L 1.34375 -3.9375 L 2.84375 -1.9375 L 2.84375 -3.9375 L 3.953125 -3.9375 L 3.953125 0 L 3.03125 0 L 1.546875 -2.015625 L 1.546875 0 Z M 0.421875 0 "/></g></g></g><g fill="#013479" fill-opacity="1"><g transform="translate(56.022455, 39.353901)"><g><path d="M 0.421875 0 L 0.421875 -3.9375 L 3.109375 -3.9375 L 3.109375 -3.015625 L 1.546875 -3.015625 L 1.546875 -2.453125 L 2.96875 -2.453125 L 2.96875 -1.53125 L 1.546875 -1.53125 L 1.546875 -0.921875 L 3.171875 -0.921875 L 3.171875 0 Z M 0.421875 0 "/></g></g></g><g fill="#013479" fill-opacity="1"><g transform="translate(59.448826, 39.353901)"><g><path d="M 2.25 0.078125 C 1.84375 0.078125 1.484375 -0.00390625 1.171875 -0.171875 C 0.867188 -0.347656 0.628906 -0.585938 0.453125 -0.890625 C 0.273438 -1.203125 0.1875 -1.5625 0.1875 -1.96875 C 0.1875 -2.375 0.269531 -2.726562 0.4375 -3.03125 C 0.613281 -3.34375 0.859375 -3.582031 1.171875 -3.75 C 1.484375 -3.925781 1.84375 -4.015625 2.25 -4.015625 C 2.59375 -4.015625 2.90625 -3.945312 3.1875 -3.8125 C 3.476562 -3.675781 3.71875 -3.488281 3.90625 -3.25 C 4.101562 -3.007812 4.238281 -2.722656 4.3125 -2.390625 L 3.15625 -2.390625 C 3.101562 -2.566406 2.992188 -2.707031 2.828125 -2.8125 C 2.671875 -2.914062 2.492188 -2.96875 2.296875 -2.96875 C 2.109375 -2.96875 1.941406 -2.925781 1.796875 -2.84375 C 1.660156 -2.757812 1.550781 -2.640625 1.46875 -2.484375 C 1.382812 -2.335938 1.34375 -2.164062 1.34375 -1.96875 C 1.34375 -1.769531 1.378906 -1.59375 1.453125 -1.4375 C 1.535156 -1.289062 1.644531 -1.175781 1.78125 -1.09375 C 1.925781 -1.007812 2.09375 -0.96875 2.28125 -0.96875 C 2.488281 -0.96875 2.671875 -1.019531 2.828125 -1.125 C 2.992188 -1.238281 3.109375 -1.390625 3.171875 -1.578125 L 4.328125 -1.578125 C 4.273438 -1.242188 4.148438 -0.953125 3.953125 -0.703125 C 3.765625 -0.453125 3.523438 -0.257812 3.234375 -0.125 C 2.941406 0.0078125 2.613281 0.078125 2.25 0.078125 Z M 2.25 0.078125 "/></g></g></g><g fill="#013479" fill-opacity="1"><g transform="translate(63.953662, 39.353901)"><g><path d="M 1.359375 0 L 1.359375 -2.890625 L 0.15625 -2.890625 L 0.15625 -3.9375 L 3.6875 -3.9375 L 3.6875 -2.890625 L 2.484375 -2.890625 L 2.484375 0 Z M 1.359375 0 "/></g></g></g></svg>